<svg width="24" height="24" viewBox="0 0 24 24" fill="none"
     xmlns="http://www.w3.org/2000/svg">
  <path
    fill="currentColor"
    fill-rule="evenodd"
    clip-rule="evenodd"
    d="M8 2h2v3h4V2h2v3h1.5A1.5 1.5 0 0 1 19 6.5V8h3v2h-3v4h3v2h-3v1.5a1.5 1.5 0 0 1-1.5 1.5H16v3h-2v-3h-4v3H8v-3H6.5A1.5 1.5 0 0 1 5 17.5V16H2v-2h3v-4H2V8h3V6.5A1.5 1.5 0 0 1 6.5 5H8V2Zm-.5 5A.5.5 0 0 0 7 7.5v9a.5.5 0 0 0 .5.5h9a.5.5 0 0 0 .5-.5v-9a.5.5 0 0 0-.5-.5h-9ZM9 9h2v2H9V9Zm4 0h2v2h-2V9Zm-4 4h2v2H9v-2Zm4 0h2v2h-2v-2Z"
  />
</svg>
